<svg width="1440" height="1135" viewBox="0 0 1440 1135" fill="none" xmlns="http://www.w3.org/2000/svg">
<rect width="1440" height="1135" fill="#F9FAFB"/>
<circle cx="1056" cy="726" r="98.5" stroke="#FFF0D9" stroke-width="3"/>
<circle cx="1365" cy="327" r="223.5" stroke="#FFF0D9" stroke-width="3"/>
<circle cx="691" cy="604" r="223.5" stroke="#FFF0D9" stroke-width="3"/>
<path d="M1410 1023C1410 1105.84 1342.84 1173 1260 1173C1177.16 1173 1110 1105.84 1110 1023C1110 940.157 1177.16 873 1260 873C1342.84 873 1410 940.157 1410 1023Z" fill="#FFFAF2"/>
<circle cx="376" cy="341" r="48.5" stroke="#FFE7BF" stroke-width="3"/>
<path d="M182 150C182 232.843 114.843 300 32 300C-50.8427 300 -118 232.843 -118 150C-118 67.1573 -50.8427 0 32 0C114.843 0 182 67.1573 182 150Z" fill="#FFFAF2"/>
<circle cx="193" cy="754" r="150" fill="#FFFAF2"/>
<circle cx="265" cy="629" r="48.5" stroke="#FFDDA6" stroke-width="3"/>
<circle cx="1273.5" cy="860.5" r="2.5" fill="#FFC973"/>
<circle cx="1295.75" cy="860.5" r="2.5" fill="#FFC973"/>
<circle cx="1318" cy="860.5" r="2.5" fill="#FFC973"/>
<circle cx="1340.25" cy="860.5" r="2.5" fill="#FFC973"/>
<circle cx="1362.5" cy="860.5" r="2.5" fill="#FFC973"/>
<circle cx="1273.5" cy="885.5" r="2.5" fill="#FFC973"/>
<circle cx="1295.75" cy="885.5" r="2.5" fill="#FFC973"/>
<circle cx="1318" cy="885.5" r="2.5" fill="#FFC973"/>
<circle cx="1340.25" cy="885.5" r="2.5" fill="#FFC973"/>
<circle cx="1362.5" cy="885.5" r="2.5" fill="#FFC973"/>
<circle cx="1273.5" cy="910.5" r="2.5" fill="#FFC973"/>
<circle cx="1295.75" cy="910.5" r="2.5" fill="#FFC973"/>
<circle cx="1318" cy="910.5" r="2.5" fill="#FFC973"/>
<circle cx="1340.25" cy="910.5" r="2.5" fill="#FFC973"/>
<circle cx="1362.5" cy="910.5" r="2.5" fill="#FFC973"/>
<circle cx="1273.5" cy="935.5" r="2.5" fill="#FFC973"/>
<circle cx="1295.75" cy="935.5" r="2.5" fill="#FFC973"/>
<circle cx="1318" cy="935.5" r="2.5" fill="#FFC973"/>
<circle cx="1340.25" cy="935.5" r="2.5" fill="#FFC973"/>
<circle cx="1362.5" cy="935.5" r="2.5" fill="#FFC973"/>
<circle cx="1273.5" cy="960.5" r="2.5" fill="#FFC973"/>
<circle cx="1295.75" cy="960.5" r="2.5" fill="#FFC973"/>
<circle cx="1318" cy="960.5" r="2.5" fill="#FFC973"/>
<circle cx="1340.25" cy="960.5" r="2.5" fill="#FFC973"/>
<circle cx="1362.5" cy="960.5" r="2.5" fill="#FFC973"/>
<circle cx="501.5" cy="76.5" r="2.5" fill="#FFE7BF"/>
<circle cx="523.75" cy="76.5" r="2.5" fill="#FFE7BF"/>
<circle cx="546" cy="76.5" r="2.5" fill="#FFE7BF"/>
<circle cx="568.25" cy="76.5" r="2.5" fill="#FFE7BF"/>
<circle cx="590.5" cy="76.5" r="2.5" fill="#FFE7BF"/>
<circle cx="501.5" cy="101.5" r="2.5" fill="#FFE7BF"/>
<circle cx="523.75" cy="101.5" r="2.5" fill="#FFE7BF"/>
<circle cx="546" cy="101.5" r="2.5" fill="#FFE7BF"/>
<circle cx="568.25" cy="101.5" r="2.5" fill="#FFE7BF"/>
<circle cx="590.5" cy="101.5" r="2.5" fill="#FFE7BF"/>
<circle cx="501.5" cy="126.5" r="2.5" fill="#FFE7BF"/>
<circle cx="523.75" cy="126.5" r="2.5" fill="#FFE7BF"/>
<circle cx="546" cy="126.5" r="2.5" fill="#FFE7BF"/>
<circle cx="568.25" cy="126.5" r="2.5" fill="#FFE7BF"/>
<circle cx="590.5" cy="126.5" r="2.5" fill="#FFE7BF"/>
<circle cx="501.5" cy="151.5" r="2.5" fill="#FFE7BF"/>
<circle cx="523.75" cy="151.5" r="2.5" fill="#FFE7BF"/>
<circle cx="546" cy="151.5" r="2.5" fill="#FFE7BF"/>
<circle cx="568.25" cy="151.5" r="2.5" fill="#FFE7BF"/>
<circle cx="590.5" cy="151.5" r="2.5" fill="#FFE7BF"/>
<circle cx="501.5" cy="176.5" r="2.5" fill="#FFE7BF"/>
<circle cx="523.75" cy="176.5" r="2.5" fill="#FFE7BF"/>
<circle cx="546" cy="176.5" r="2.5" fill="#FFE7BF"/>
<circle cx="568.25" cy="176.5" r="2.5" fill="#FFE7BF"/>
<circle cx="590.5" cy="176.5" r="2.5" fill="#FFE7BF"/>
<circle cx="980.5" cy="972.5" r="2.5" fill="#FFDDA6"/>
<circle cx="1002.75" cy="972.5" r="2.5" fill="#FFDDA6"/>
<circle cx="1025" cy="972.5" r="2.5" fill="#FFDDA6"/>
<circle cx="1047.25" cy="972.5" r="2.5" fill="#FFDDA6"/>
<circle cx="1069.5" cy="972.5" r="2.5" fill="#FFDDA6"/>
<circle cx="980.5" cy="997.5" r="2.5" fill="#FFDDA6"/>
<circle cx="1002.75" cy="997.5" r="2.5" fill="#FFDDA6"/>
<circle cx="1025" cy="997.5" r="2.5" fill="#FFDDA6"/>
<circle cx="1047.25" cy="997.5" r="2.5" fill="#FFDDA6"/>
<circle cx="1069.5" cy="997.5" r="2.5" fill="#FFDDA6"/>
<circle cx="980.5" cy="1022.5" r="2.5" fill="#FFDDA6"/>
<circle cx="1002.75" cy="1022.5" r="2.5" fill="#FFDDA6"/>
<circle cx="1025" cy="1022.5" r="2.5" fill="#FFDDA6"/>
<circle cx="1047.25" cy="1022.5" r="2.5" fill="#FFDDA6"/>
<circle cx="1069.5" cy="1022.5" r="2.5" fill="#FFDDA6"/>
<circle cx="980.5" cy="1047.5" r="2.5" fill="#FFDDA6"/>
<circle cx="1002.75" cy="1047.5" r="2.5" fill="#FFDDA6"/>
<circle cx="1025" cy="1047.5" r="2.5" fill="#FFDDA6"/>
<circle cx="1047.25" cy="1047.5" r="2.5" fill="#FFDDA6"/>
<circle cx="1069.5" cy="1047.5" r="2.5" fill="#FFDDA6"/>
<circle cx="980.5" cy="1072.5" r="2.5" fill="#FFDDA6"/>
<circle cx="1002.75" cy="1072.5" r="2.5" fill="#FFDDA6"/>
<circle cx="1025" cy="1072.5" r="2.5" fill="#FFDDA6"/>
<circle cx="1047.25" cy="1072.5" r="2.5" fill="#FFDDA6"/>
<circle cx="1069.5" cy="1072.5" r="2.5" fill="#FFDDA6"/>
</svg>
