<svg width="94" height="105" viewBox="0 0 94 105" fill="none" xmlns="http://www.w3.org/2000/svg">
<circle cx="2.5" cy="2.5" r="2.5" fill="white"/>
<circle cx="24.75" cy="2.5" r="2.5" fill="white"/>
<circle cx="47" cy="2.5" r="2.5" fill="white"/>
<circle cx="69.25" cy="2.5" r="2.5" fill="white"/>
<circle cx="91.5" cy="2.5" r="2.5" fill="white"/>
<circle cx="2.5" cy="27.5" r="2.5" fill="white"/>
<circle cx="24.75" cy="27.5" r="2.5" fill="white"/>
<circle cx="47" cy="27.5" r="2.5" fill="white"/>
<circle cx="69.25" cy="27.5" r="2.5" fill="white"/>
<circle cx="91.5" cy="27.5" r="2.5" fill="white"/>
<circle cx="2.5" cy="52.5" r="2.5" fill="white"/>
<circle cx="24.75" cy="52.5" r="2.5" fill="white"/>
<circle cx="47" cy="52.5" r="2.5" fill="white"/>
<circle cx="69.25" cy="52.5" r="2.5" fill="white"/>
<circle cx="91.5" cy="52.5" r="2.5" fill="white"/>
<circle cx="2.5" cy="77.5" r="2.5" fill="white"/>
<circle cx="24.75" cy="77.5" r="2.5" fill="white"/>
<circle cx="47" cy="77.5" r="2.5" fill="white"/>
<circle cx="69.25" cy="77.5" r="2.5" fill="white"/>
<circle cx="91.5" cy="77.5" r="2.5" fill="white"/>
<circle cx="2.5" cy="102.5" r="2.5" fill="white"/>
<circle cx="24.75" cy="102.5" r="2.5" fill="white"/>
<circle cx="47" cy="102.5" r="2.5" fill="white"/>
<circle cx="69.25" cy="102.5" r="2.5" fill="white"/>
<circle cx="91.5" cy="102.5" r="2.5" fill="white"/>
</svg>
